<svg xmlns="http://www.w3.org/2000/svg" width="64" height="64" viewBox="0 0 64 64">
  <defs>
    <linearGradient id="bg" x1="0" y1="0" x2="1" y2="1">
      <stop offset="0%" stop-color="#16233f" />
      <stop offset="100%" stop-color="#0a1326" />
    </linearGradient>
    <linearGradient id="ring" x1="0" y1="0" x2="1" y2="1">
      <stop offset="0%" stop-color="#f6d77b" />
      <stop offset="100%" stop-color="#c6a246" />
    </linearGradient>
  </defs>

  <path d="M32 2 L56 10 V28 C56 43 46 54 32 62 C18 54 8 43 8 28 V10 Z" fill="url(#bg)" stroke="url(#ring)" stroke-width="3" stroke-linejoin="round" />

  <g fill="none" stroke="#e9c66f" stroke-width="1.8" stroke-linecap="round" stroke-linejoin="round">
    <path d="M18 37 L27 25 L36 33 L47 20" />
    <path d="M27 25 L38 17" />
    <path d="M36 33 L43 43" />
  </g>

  <g fill="#f6d77b">
    <circle cx="18" cy="37" r="1.8" />
    <circle cx="27" cy="25" r="2.1" />
    <circle cx="38" cy="17" r="1.9" />
    <circle cx="36" cy="33" r="1.8" />
    <circle cx="43" cy="43" r="2.1" />
    <circle cx="47" cy="20" r="1.9" />
  </g>

  <path d="M32 17 L34 23 L40 23 L35 27 L37 33 L32 29 L27 33 L29 27 L24 23 L30 23 Z" fill="#fff1b8" stroke="#f6d77b" stroke-width="1" stroke-linejoin="round" />
</svg>
